# xmcd CD database file
#
# Track frame offsets:
#	150
#	21100
#	37510
#
# Disc length: 778 seconds
#
# Revision: 0
# Processed by: cddbd v1.5PL3 Copyright (c) Steve Scherf et al.
# Submitted via: CDex 1.51
#
DISCID=12030803
DTITLE=ABYSS - ユメの果て
DYEAR=1998
DGENRE=JPop
TTITLE0=ユメの果て
TTITLE1=カスタネット
TTITLE2=ユメの果て (back track)
EXTD=YEAR: 1998
EXTT0=
EXTT1=
EXTT2=
PLAYORDER=
